<?xml version="1.0" encoding="UTF-8"?>
<svg id="Layer_1" xmlns="http://www.w3.org/2000/svg" version="1.1" viewBox="0 0 612 792">
  <!-- Generator: Adobe Illustrator 29.2.1, SVG Export Plug-In . SVG Version: 2.1.0 Build 116)  -->
  <path d="M538.11,545.99c1.37,1.02-2.94,2.23-3.38,2.34-16.11,3.92-38.16,4.82-55.23,7.39-103.47,15.6-207.94,38.84-305.56,76.25-3.15.31-6.36-3.64-9.01-5.17-12.48-7.23-26.68-10.9-40.53-14.58-.35-2.31,1.84-3.16,3.63-3.9,19.03-7.85,48.15-14.41,68.63-19.29,104.45-24.88,214.62-38.65,321.86-44.28l19.59,1.23Z"/>
  <path d="M185.82,566.46l14.77-67.44c-.81.53-1.14,1.24-1.54,2.08-10.1,21.26-15.42,45.48-26.15,66.59-1.5,1.22-13.27,2.94-15.71,3.01-3.66.11-2.08-1.06-2.05-3.3.26-20.45,1.16-40.97,1.79-61.41l-1.51-.36-12.79,64.3c-.22.58-.69.89-1.15,1.26-2.91,2.34-16.34,2.26-20.69,3.1l23.6-106.18c.5-1.14,2.2-1.23,3.37-1.45,4.18-.77,9.49-1.42,13.76-1.9,3.64-.41,9.2-1.27,12.6-1.31.67,0,1.39-.01,1.82.6.53.77.36,14.39.29,16.62-.4,12.84-2.54,26.54-2.82,39.24-.01.61.22,2.54,1.29,1.99l22.88-60.83,32.24-3.94.44,2.88-22.58,102.69c-.16.43-.42.75-.78,1.03-1.12.86-20.3,3.49-21.05,2.74Z"/>
  <path d="M511.62,289.45c6.28-4.26,17.29-10.4,24.98-10.29,5.97.09,16.28,4.8,20.51,9.05,2.98,3,10.69,15.18,13.17,19.35.4.68,1.89,2.99,1.52,3.51-2.22.75-3.79,2.55-6,3.35-3.82,1.38-8.07.96-11.83,2.62-4.01,1.77-7.56,6.28-11.86,7.88l-.38,1.25c5.9.99,13.13,7.12,16.85,11.76,7.51,9.38,5.86,16.3,9.36,26.17,1.32,3.71,4.91,6.86,5.56,10.7.55,3.2.26,10.21-3.79,10.98-6.31,1.2-8.71-2.66-13.73-4.91-14.97-6.7-21.39-1.63-35.63-2.91-5.8-.52-11.88-3.15-17.43-4.77-.92.2-1.66,4.82-2.23,6.21-5.95,14.53-13.49,23.48-23.05,35.36-2.58,3.21-4.89,9.26-9.75,9.55-2.87.17-2.46-1.6-3.82-2.69-3.5-2.8-6.03-3.6-7.34-8.64l-.8-.1c-4.14,2.62-9.38,2.39-14.19,3.32-13.64,2.63-28.76,5.69-41.7,10.69-2.48.96-13.98,7.16-15.5,6.2-.75-.47-.65-.93-.48-1.69.59-2.72,9.69-7.88,12.24-10.05,7.25-6.17,13.56-16.05,17.43-24.72,1.61-3.6,6.48-20.35,7.51-21.39.91-.93,1.77-.99,3.04-.87-.58,2.32.62,4.96.63,6.95,0,2.49-.85,4.85-.62,7.81.07.89-.48,1.74.89,1.49l15.64-16.28c1.33-2.2,1.91-7.44,1.53-9.93-.13-.88.36-.97-.91-.9-2.1.1-5.01,2.24-7.2,3.05-9.31,3.41-14.98,3.07-24.73,3.02-7.62-.03-11.93,2.44-19.25,2.98-2.12.16-14.39.35-15.06-.58-2.28-5.38-1.97-10.02,1.52-14.77,1.91-2.59,5.6-4.91,7.49-7.57,2.3-3.23,3.54-8.17,5.66-11.81,6.69-11.46,18.47-19.16,30.81-23.39-5.42-2.83-10.43-8.33-13.35-13.75-1.77-3.29-2.9-8.55-5.04-11.22-1.19-1.48-3.67-2.56-5.1-3.93-4.35-4.15-12.51-11.04-3.83-15.29,7.31-3.58,10.52,1.13,16.18,1.14,3.53,0,11.61-3.36,16.84-3.65,11.92-.68,20.8,5.09,29.83,12.07,4.75-12.49,10.13-24.64,21.74-32.16,2.68-1.74,6.07-2.8,8.35-4.3,3.66-2.4,4.46-7.89,10.49-7.48,5.09.35,4.23,5.6,5.68,9.42,1.9,5.02,5.94,8.63,7.65,14.03,2.81,8.92,3.74,21.09,1.51,30.11ZM488.74,325.58c-.3-1.05.77-1.61.92-2.4,3.79-19.23,23.13-28.85,19.39-51.35-.54-3.26-1.73-9.36-2.69-12.36-1.49-4.64-5.51-8.18-7.08-12.79-.88-2.59-.68-4.55-1.51-6.96-5.28-1.24-3.99,1.25-6.93,3.96-4.39,4.04-11.92,6.71-16.86,11.45-13.02,12.52-20.03,39.58-12.97,56.32,2.92,6.92,11.19,9.02,10.25,17.15-2.83-.77-2.6-4.04-4.2-6.33-2.01-2.86-6.57-7.17-10.24-6.94.33-2.63.24-7.06-1.28-9.24-.87-1.25-3.14-2.14-4.45-3.37-5.01-4.73-9.23-10.97-15.32-14.19-2.31-1.22-12.43-4.48-13.27-6.01-.24-1.24.5-1.03,1.38-.78,2.65.74,7.41,3.54,10.24,4.82,1.71.77,3.6.82,5.44,1.79,5.35,2.8,9.29,9.59,13.37,13.13.76.66,1.03.79,2.08.62-1.4-3.12-.14-5.86.03-8.75.06-1.11-.57-2.14-.53-3.01.08-1.93,1.72-3.43,1-5.87s-12.79-9.98-15.56-10.96c-12.82-4.53-19.81,1.41-30.47,1.43-3,0-7.15-2.23-10.23-2.28-2.29-.04-6.02.76-5.39,3.55,1.29,5.71,6.81,6.39,10.53,9.38,5.98,4.8,7.46,19.77,15.74,25.81,4.14,3.02,4.02,1.56,8.06,1.52,8.38-.08,15.76.61,23.95,2,8.62,1.47,15.16,7.66,17.62,16.1.83,2.84.49,14.18,2.44,15.03l1.48.02-1.18-.97.26-3.26c.55-.87,1.87.46,3.07-.52.93-.76,3.56-6.38,3.88-7.9l1.19,1.8c-.36-4.85,1.57-9.94,3.33-14.44,4.22-10.83,10.28-20.71,15.47-30.9.56-1.11.25-2.59,1.39-3.42,1.26.88.77,1.14.48,2.27-1.39,5.42-7.35,16.83-9.99,22.53-1.59,3.44-4.4,7.12-5.71,10.55-1.47,3.85-1.52,9.23-3.01,12.65-.68,1.57-3.43,4.42-4.61,6.23-.87,1.34-2.77,3.84-2.45,5.37,3.07-1.51,4.25-5.78,6.05-8.4,2.24-3.25,7.52-11.13,10.22-13.27,2.6-2.06,5.91-2.56,8.27-4.21,10.31-7.19,19.4-14.58,31.77-18.98,1.9-.68,11.25-3.63,12.03-1.21l-.58,1.81c-8.3-.09-15.9,3.97-23.11,7.6-1.58.79-15.59,7.47-13.04,10.15,9.95,2.67,20.59,1.11,30.32,4.72,3.11-.6,11.78-11.81,15-13.29,4.01-1.85,10.54.76,14.9-1.07l-5.32-6.41c-9.57-25.27-32.09-22.87-51.85-10.7-3.41,7.29-7.77,14.14-12.42,20.7-1.11,1.56-3.03,2.73-4.14,4.29-1.78,2.51-2.2,6.22-5.15,7.79ZM465.44,332.03c-2.06-3.28-2.79-4.63-3.56-8.14-.61-2.75-2.73-4.1-5.38-4.91-18.94-5.73-36.04-3.86-52.01,8.15-10.76,8.09-10.5,12.71-16.66,23.09-3.04,5.11-12.43,11.53-9.44,17.97.96,2.07,7.25,1.5,9.48,1.34,6.33-.47,12.13-3.44,17.52-4.16,5.02-.66,10.96.39,16.14-.12,7.61-.76,34.11-9.57,40.43-13.76,4.67-3.09,7.38-4.39,6.31-10.85-.48-.47-11.53,2.15-13.24-.3,3.89-1.19,8.47-3.39,12.35-.92,1.86-.17.37-5.08-.39-6.25-.42-.64-1.36-.85-1.54-1.14ZM479.1,345.47c2.41,2.29,3.49,5.53,5.42,8.11,4.57,6.1,20.83,15.17,28.14,17.63,16.57,5.57,29.72-1.72,46.94,7.26,2.67,1.39,7.67,6.99,10.33,2.73,3.08-4.92-3.65-11.15-5.35-14.94-4.15-9.21-.39-16.01-8.7-25.63-15.49-17.93-38.27-17.32-60.11-15.5-1.9.18-9.04,8.8-8.24,9.49,3.64-.58,9.52-.08,12.78-1.36,3.01-1.19,6.25-5.65,10.7-4.65-.45,4.03-7.33.85-7.83,4.81,7.55.51,14.34,2.82,20.88,6.52,5.06,2.86,18.57,12.9,22.62,16.95.5.5.85,1.14,1.06,1.81-.35.32-3.18-1.52-3.8-1.91-18.18-11.38-26.58-20.98-50.09-20.36-1.99.05-3.8,1.31-6.02-.01l-.25,1.52-1.86.3c-.01.65.58.82,1.06,1.04,2.85,1.27,8.45,1.18,12.01,2.44,1.54.54,5.87,2.71,7.22,3.62.77.52,1.64.68,1.39,1.92-3.35.92-4.33-1.54-6.68-2.65-4.55-2.13-8.61-2.23-13.35-2.9-1.63-.23-1.97-1.91-4.38-.5-1.91,1.11-1.97,4.07-3.88,4.26ZM474.28,392.43c-.95-7.42,2-15.14,2.41-22.59.12-2.23.16-5.02.03-7.25s-1.44-13.71-2.78-14.04c-4.78.03-6.08,3.33-9.7,5.83-5.25,3.61-11.81,5.84-18.18,6.21-2.89,12.91,1.62,26.54,10.17,36.36,1.17,1.34,3.52,2.08,4.36,4.07,1.35,3.23.65,7.55,1.2,10.84.65,3.92,3.74,7.98,7.68,8.87,1.3-3.77,5.26-6.8,7.82-9.95,9.2-11.34,17.53-25.05,19.16-39.88l-.14-.75c-3.74-3.77-9.79-7.1-12.97-11.16-2.59-3.31-2.72-6.71-5.14-9.92-.26,3.07,1.69,5.79,2.05,8.79.92,7.83-2.81,34.37-7.25,40.8-.25.36-.45.73-.82.99-1.1-2.58,2.37-4.86.9-7.52l1.21.3ZM456.05,401.63c-.39-.61-3.26-2.33-4.31-3.82-2.84-4.04-4.86-11.42-7.65-15.23-.38-.51-.57-1.18-1.38-.97l-20.81,27.67c11.47-2.03,23.9-3.15,34.92,1.21.39-.55-.14-7.91-.76-8.87Z"/>
  <path d="M147.88,367.14l1.82-38.72-6.28-2.87-9.93,43.03c-.88,1.28-20.14,2.72-22.99,2.51l-.59-1.26,23.51-108.83c.27-.73,1.02-.71,1.65-.88,4.55-1.22,11.87-2.01,16.72-2.58,8.23-.96,22.04-2.52,29.84-.94,7.7,1.56,7.74,8.24,7.82,14.51.11,8.14-5.01,35.03-9.98,41.21-2.15,2.67-7.53,4.55-8.01,8.31-.24,1.9,1.45,4.69,1.7,7.07.38,3.65-.28,7.75.04,11.46l-1.91,24.58c-.4,1.22-7.12,1.87-8.73,2.11-1.8.26-14.16,1.8-14.68,1.28ZM147.29,307.51c4.07-.89,10.85-1.03,13.38-4.98,1.82-2.83,5.29-21.53,4.66-24.82s-9.82-3.97-11.34-.54l-5.81,22.49-.89,7.83Z"/>
  <path d="M38.29,379.78l24.23-110.06c10.55-1.57,21.38-3.87,32.05-4.38,34.63-1.66,24.72,26.7,19.92,49.43-2.77,13.13-7.35,37.62-15.48,47.75-14.13,17.62-40.77,13.91-60.72,17.26ZM65.99,357.49c5.62.32,13.62-.55,16.13-6.44,2.9-6.82,5.37-20.19,7.06-27.87,1.9-8.66,5.29-21.94,5.71-30.43.19-3.83-.34-6.07-4.32-7.1-2.76-.72-7.66-1.42-8.62,2l-15.96,69.85Z"/>
  <path d="M320.72,551.41c-.52-7.18,1.24-14.29,1.8-21.39.28-3.5.96-9.41.61-12.65-.41-3.76-3.89-4.21-6.98-3.37l-9.56,39.22c-1.24,1.45-20.07,1.84-23.2,1.8l23.02-104.95.81-.99c.56-.34,1.16-.5,1.81-.6,9.95-1.64,24.87-3.28,34.89-3.65,9.77-.36,17.74.15,18.24,11.74.43,10.13-4.22,36.95-11.6,44.28-1.34,1.33-6.51,3.78-6.87,5.21.13,2.3,1.47,4.18,1.73,6.51,1.24,11.23-1.34,24.71-1.9,36.05l-.92.89c-7.26.88-14.51,2.28-21.88,1.91ZM336.68,465.29h-9.03c-4.47,8.36-4.68,18.48-7.53,27.47l.09.73c2.77,1.78,10.11.8,12.24-1.72s4.73-15.14,5.13-18.95c.17-1.59.93-6.95-.89-7.52Z"/>
  <path d="M355.64,266.57c-.07-4.77,2.62-8.59,1.66-13.43-.94-4.78-10.62-2.29-13.01,1.18-.94,1.36-4.32,14.49-4.17,16.03.51,5.24,12.51,7.3,16.88,9.02,13.17,5.18,16.8,9.99,14.01,24.54-5.23,27.26-21.02,47.12-51.12,43.88-18.75-2.02-15.6-22.43-11.14-35.38l21.04-.42c2.7,1.89-4.35,15.1,4.46,14.83,1.8-.06,6.93-2.01,8.17-3.33,3.6-3.85,6.21-16.72,1.6-20.6-6.74-5.68-22.08-5.15-26-15.25-3.31-8.52,1.66-30.94,6-39.15,10.27-19.45,59.4-29.26,56.84,2.04-.21,2.58-2.15,13.65-3.9,14.77-.98.63-7.72,1.19-9.55,1.29-3.89.21-7.87-.21-11.77-.03Z"/>
  <path d="M290,274.39c-.07-4.77,2.62-8.59,1.66-13.43s-10.62-2.29-13.01,1.18c-.94,1.36-4.32,14.49-4.17,16.03.51,5.24,12.51,7.3,16.88,9.02,16.33,6.43,17.18,13.47,12.66,29.82-6.99,25.26-21.43,41.66-49.77,38.61-18.75-2.02-15.6-22.43-11.14-35.38l21.04-.42c2.7,1.89-4.35,15.1,4.46,14.83,1.8-.06,6.93-2.01,8.17-3.33,3.6-3.85,6.21-16.72,1.6-20.6-6.74-5.68-22.08-5.15-26-15.25-3.31-8.52,1.66-30.94,6-39.15,10.27-19.45,59.4-29.26,56.84,2.04-.21,2.58-2.15,13.65-3.9,14.77-.98.63-7.72,1.19-9.55,1.29-3.89.21-7.87-.21-11.77-.03Z"/>
  <path d="M461.63,463.49c-.54-5.1,5.08-15.43-3.73-14.92-5.28.31-7.71,2.92-9.23,7.68-1.22,3.81-3.63,10.83-.12,13.39,7.83,5.7,26.59,5.45,28.13,19.44,1.61,14.66-8.28,36.64-20.53,45.11-9.48,6.56-32.04,11.6-40.92,2.49-5.68-5.84-3.65-22.22-.3-29.24l20.22-1.48c2.16.94.11,5.8-.02,7.82-.55,8.51,3.68,9.08,10.53,5.71,3.63-1.79,3.87-3.97,4.72-7.92,1.02-4.73,2.55-10.37-1.71-13.75-5.07-4.02-15.3-5.93-20.73-9.98-9.3-6.95-2.65-33.1,2.14-41.73,7.02-12.66,28.4-18.58,41.93-16.18s15.72,11.63,13.54,24.07c-.37,2.09-1.6,8.5-3.75,8.9l-20.18.6Z"/>
  <path d="M481.59,498.5c7.09.33,14.32-.87,21.24-.15,1.59,1.14-2.55,10.46-.29,13.66,2.83,2.99,9.77.91,12.34-1.6,3.18-3.09,4.86-14.03,3.04-18.01-1.49-3.27-15.56-7.47-19.51-10-11.34-7.29-9.46-17.68-7-29.17,3.53-16.51,9.22-25.65,26.22-30.38,17.91-4.99,36.95-1.78,34.25,21.01-.32,2.67-1.79,9.88-4.59,10.47l-18.27,1.08c-2.36-1.67,3.06-11.91.02-14.47-3.38-1.78-10.02-.29-12.29,2.73-2.09,2.78-4.66,13.37-3.39,16.57,1.77,4.45,12.58,6.04,16.89,7.79,15.36,6.25,15.16,16.08,11.01,30.26-3.73,12.74-9.44,23.14-21.29,29.9-8.74,4.99-22.26,7.58-31.86,4.25-13.85-4.81-10.17-23.18-6.55-33.93Z"/>
  <path d="M247.37,525.63l-8.27,34.79c-1.81,2.19-20.04,1.83-23.77,3.02l24.38-106.6c.59-.67,3.23-.94,4.3-1.12,10.18-1.73,31.82-4.6,41.17-1.58,5.57,1.8,9.06,7.63,9.63,13.25,1.01,9.89-4.59,32.19-9.75,40.82-8.05,13.47-23.2,16.09-37.7,17.4ZM264.54,503.66l6.82-27.26c.75-6.61-7.34-5.77-11.52-4.11l-7.8,31.86c-.25,4.29,11.08,1.15,12.5-.5Z"/>
  <path d="M218.43,292.37l24.01-.51-4.16,20.69c-1.16,1.63-20.7,1.37-24.08,2.26-2.61,7.79-4.48,15.86-5.48,24.02,8.6-.98,17.21-2.65,25.89-2.41,1,1.01-2.85,18.52-3.92,21.08-.99,1.17-16.08,3.31-18.67,3.61-8.54.97-19.2,2.03-27.7,2.41-1.31.06-2.68.23-3.94-.27l-.34-1.54,22.01-105.16-.54-3.79c15.9-4.57,32.84-4.37,49.1-7.2l1.97,1.57c-1.69,3.59-2.35,18.31-4.06,20.42-1.85,2.28-20.89,1.91-24.72,4.18-1.55,1.03-6.13,19.43-5.36,20.66Z"/>
  <path d="M448.45,198.46c4.19,1.23,36.93,6.39,37.32,8.26.44,2.1-1.85,4.47-3.46,5.55l-31.42,14.64,2.31,38.45c-5.54-.38-8.52-6.87-12.02-10.55-2.34-2.46-14.47-15.12-16.6-15.33-1.02-.1-2.32.51-3.28.9-8.54,3.42-20.01,11.7-28.28,13.87-1.43.37-2.79.35-4.24.28-.21-1.93.37-3.5,1.1-5.22,3.33-7.79,10.58-16.54,14.66-24.48,1.12-2.17,3.17-5.02,2.96-7.34l-23.24-28.01c-1.19-2.54,1.2-3.89,3.52-4.01l34.72,6.77,18.78-32.15c4.25-.54,4.01,1.92,4.61,5.11,1.98,10.52,1.68,22.54,2.57,33.26Z"/>
  <path d="M424.3,435.8l-4.5,21.09-25.01,3,1.8.89c-.8,1.07-2.22.6-2.9,1.92s-1.81,7.28-2.22,9.22c-.31,1.45-1.97,7.93-1.15,8.5.77.21,1.53.57,2.35.55,4.08-.1,9.16-1.06,13.26-1.21,2.7-.1,5.43.06,8.13,0,.69.7-3.13,18.06-3.94,19.25-.47.69-.9,1.15-1.79,1.22l-20.96.72c-3.48,1.18-5.09,19.56-6.42,23.38l25.25-2.77,1.22.66-4.74,20.54c-.78.93-13.2,2.89-15.48,3.19-11.28,1.45-22.72,1.39-33.94,3.09l21.62-106.21c.92-1.3,24.64-4.65,28.15-5.11,5.37-.71,14.24-2.43,19.21-2.39.73,0,1.37.45,2.09.5Z"/>
  <path d="M331.44,354.66c8.87-.62,18.14,2.68,18.79,12.79.51,8.01-4.41,29.42-6.31,38.24-3.17,14.71-5.98,25.63-21.23,31.76-12.9,5.18-38.84,8.71-37.49-12.19.58-9.02,8.87-44.42,12.71-52.33,5.6-11.53,21.42-17.43,33.53-18.27ZM325.41,371.48c-3.37.33-8.59,2.54-9.7,6-1.35,13.02-7.45,27.3-8.77,40-.25,2.39-.81,5.01,1.73,5.97,3.22,1.21,8.87.59,11.13-2.14,2.32-2.82,6.36-23.73,7.36-28.77.84-4.23,3.27-13.59,3.21-17.29-.05-3.13-2.21-4.04-4.96-3.77Z"/>
  <path d="M112.22,574.75l-21.85,3.17-1.24-.59-.12-1.96c7.84-31.08,13.57-62.72,21.23-93.83.48-1.93,2.32-10.9,3.71-11.35l21.53-2.46.85,1.33-24.11,105.69Z"/>
  <path d="M255.08,382.79l-13.86,1.21c-.62-.63,2.12-16.6,2.74-17.43.27-.36.6-.62,1.01-.8l48.95-5.27,1.23.61-3.94,17.18c-1.8,1.89-12.03.65-14.16,2.7-1.12,1.08-3.19,11.36-3.72,13.74-3.61,16.18-6.13,32.65-9.54,48.87l-2.52,1.7-17.25,1.88-.96-1.4,12.01-62.99Z"/>
  <path d="M158,381.72c2.47,6.74.82,16.08,8.83,19.17,3.4,1.31,7.21.7,10.57,2.07,3.14,8-4.39,6.13-9.05,7.22-11.44,2.69-6.65,13.9-10.69,20.62-.97,1.62-3.34,2.13-4.67.78-3.71-3.77,1.77-13.58-6.1-18.59-4.56-2.9-12.71-.63-14.22-3.86-3.41-7.31,11.99-5.63,15.85-9.15,3.29-3,1.86-5.98,2.53-9.51s2.26-12.01,6.95-8.75Z"/>
  <path d="M121.85,437.11c8.44-1.14,12.41,10.31,4.17,13.85-11.42,4.9-13.52-12.58-4.17-13.85Z"/>
  <path d="M489.33,278.01c-4.79,16.47-5.01,33.92-9.44,50.47-.88,3.29-.81,6.87-4.69,7.94-2.51-.52-2.38-17.28-2.73-20.17-.98-8.01-3.64-15.91-2.99-24.09.33-4.19,2.19-8.14,2.4-12.36.79-.96,1.09.07,1.2.89.37,2.9-.63,5.49-.6,7.84.04,3.25.32,8.14.58,11.47.4,5.09,1.99,10.17,1.83,15.34l1.19-.61c1.27,3.64.43,7.41-.02,11.11l.62,6.35c.29-3.65,1.54-7.13,2.26-10.69,1.8-8.94,2.42-18.23,4.04-27.28.97-5.4,3.21-10.52,4.54-15.83l1.82-.4Z"/>
  <path d="M514.62,302.1c.26,1.22-.27,1.61-.87,2.43-.77,1.05-11.14,11-11.76,10.21-.25-1.18.27-1.62.87-2.44.82-1.12,7.86-8.75,8.73-9.34,1.08-.73,1.61-1.13,3.04-.87Z"/>
  <path d="M453.2,288.84c-1.01.2-1.59-.5-2.34-.96-2.53-1.56-6.61-4.32-8.93-6.12-.73-.57-1.63-.7-1.37-1.94.98-.91,10.11,5.83,11.38,6.98.67.61,1.51.89,1.26,2.05Z"/>
  <path d="M478.5,302.7v8.73c0,.46-1,1.76-.61,2.71-3.81-.94-.77-3.84-.56-6.32.18-2.14-1.7-5.1,1.17-5.12Z"/>
  <path d="M492.33,297.9l.35,1.8c-.73,1.37-2.84.87-3.65,1.79-.68.77-.28,2.88-1.49,3.01-1.27-2.86,1.55-7.19,4.79-6.6Z"/>
  <path d="M451.99,313.54c-.86.76-4.01-6.16-3.6-7.22,1.03-1.15,4.96,6.02,3.6,7.22Z"/>
  <path d="M445.97,310.52c-1,.11-2.03-.54-2.67-1.24-.3-.33-2.95-4.57-2.74-4.78,1.9-.69,6.04,5.41,5.41,6.02Z"/>
  <path d="M494.75,275.6c.44,1.25-.86,5.95-2.1,6.01-1.98.09-.11-6.58,2.1-6.01Z"/>
  <path d="M494.08,264.08l-2.94.07.03-2.94c3.3-1.41,4.05-.31,2.91,2.88Z"/>
  <path d="M473.08,334.02l-.3,1.77.9-.58c.6,1.32.64,4.53-1.49,3.61-1.43-.61-1.58-5.11.9-4.81Z"/>
  <path d="M435.74,300.89c1.19-1.14,6.89,4.4,2.4,3.92-.66-.45-3.01-3.33-2.4-3.92Z"/>
  <path d="M429.26,334.15c1.22-1.12,14.28-4.53,16.58-4.79,5.89-.66,17.8-1.35,20.01,5.54-1.93,2.41-3.22-.69-5-1.61-4.7-2.46-16.83-.87-22.11.42-2.12.52-7.1,2.9-8.74,2.74-1.53-.15-1.7-1.42-.74-2.3Z"/>
  <path d="M420.08,339.44c-.58,4.44-5.81,5.26-9.22,3.49-1.34-.69-1.06-1.51-1.02-2.89l5.73,2.27c1.7-1.32,1.7-3.5,4.5-2.87Z"/>
  <path d="M439.95,327.99c-.73.74-7.64-4.31-7.22-4.81,2.1-2.07,8.31,3.71,7.22,4.81Z"/>
  <path d="M460.42,327.39c-2.05-1.77-5.09-2.52-6.62-4.81,1.67-.82,7.96,3.08,6.62,4.81Z"/>
  <path d="M481.5,383.39l-1.8-.95c.92-5.82,3.25-11.01,5.12-16.51,1.09.78.87,1.3.66,2.42-.86,4.64-3.39,10.16-3.98,15.04Z"/>
  <path d="M489.93,381.59h-1.2c.86-2.64,1.41-6.07-.63-8.07l2.13-2.76c3.24,3.17.56,7.23-.3,10.84Z"/>
  <path d="M464.64,373.76c-1.83.29-.96-.45-1.22-1.47-.84-3.33-.58-6.58-.59-9.97.56-.26,1.8.53,1.8.9v10.54Z"/>
</svg>